<svg width="22" height="22" viewBox="0 0 22 22" fill="none" xmlns="http://www.w3.org/2000/svg">
<path d="M9.4515 0.718134C7.97255 1.48612 6.5172 2.26994 6.26546 2.42037C6.10813 2.51538 6.10813 2.51538 6.26546 2.63414C6.59587 2.87957 9.2627 4.18594 9.43577 4.18594C9.53017 4.18594 9.92351 4.02759 10.3011 3.83757L10.9934 3.48921L11.7329 3.88508C12.2442 4.15427 12.5274 4.2572 12.6533 4.22553C13.0545 4.13052 15.9416 2.76081 15.9652 2.66581C15.9731 2.60247 15.7449 2.4362 15.4145 2.26994C15.0998 2.10367 14.4705 1.77114 14.0142 1.52571C13.558 1.28027 12.7791 0.868564 12.2835 0.607291C11.7879 0.338101 11.3474 0.0926623 11.3081 0.0609927C11.1271 -0.0973544 10.7574 0.0293236 9.4515 0.718134Z" fill="white"/>
<path d="M2.82762 4.17802L1.46667 4.88267L1.47454 7.97836C1.47454 9.68059 1.49814 11.0978 1.52961 11.1216C1.57681 11.1691 3.2839 10.4565 4.12564 10.029L4.57405 9.80727V8.26338C4.57405 7.41622 4.59765 6.7195 4.63698 6.7195C4.66845 6.7195 4.76285 6.767 4.84938 6.82242C4.93592 6.88576 5.36072 7.12328 5.79339 7.35289C6.22607 7.58249 6.83181 7.9071 7.14648 8.08128L7.71288 8.39006L8.18489 8.18421C8.6569 7.98627 8.81423 7.91502 10.183 7.28163C10.6 7.09161 10.8675 6.92535 10.8517 6.86201C10.8124 6.75117 10.6393 6.64824 9.1761 5.87234C7.08354 4.76391 4.48751 3.47338 4.33804 3.47338C4.25938 3.47338 3.57497 3.79007 2.82762 4.17802Z" fill="white"/>
<path d="M16.9642 3.99593C16.5316 4.19386 15.9494 4.46305 15.6662 4.59765C15.383 4.73224 15.0054 4.90643 14.8245 4.9856C14.6357 5.06477 14.4862 5.1677 14.4862 5.20728C14.4862 5.28646 14.5255 5.31021 15.8 6.05444C16.2484 6.3078 16.6102 6.5374 16.6102 6.56115C16.6102 6.58491 16.5158 6.64824 16.3978 6.69575C16.1225 6.80659 11.8902 8.72259 11.4575 8.92845C11.1664 9.07096 10.663 9.30056 9.76615 9.71227C8.712 10.1873 6.86331 11.0265 6.65878 11.1136C6.53291 11.177 6.13957 11.3512 5.79343 11.5174C4.99889 11.8816 3.46487 12.5863 3.0086 12.7842C2.8198 12.8634 2.41073 13.0613 2.10392 13.2117L1.54538 13.4888L1.49818 15.3098C1.46671 16.3074 1.47458 17.1625 1.50605 17.21C1.54538 17.2496 2.10392 17.5584 2.75686 17.883L3.93688 18.4689L4.39315 18.2789C4.84156 18.0968 5.6361 17.7326 6.76105 17.2021C7.09145 17.0437 7.32745 16.8854 7.30385 16.83C7.28025 16.7508 5.5889 15.7374 5.32143 15.6345C5.28209 15.6186 5.25849 15.5949 5.28209 15.5711C5.32143 15.5394 6.67451 14.9061 7.24879 14.6527C8.63334 14.0351 9.32561 13.7264 11.7171 12.6259C13.2039 11.945 14.4311 11.3907 14.4469 11.3907C14.4626 11.3907 14.7694 11.2562 15.1313 11.0899C15.4932 10.9236 16.8384 10.3061 18.1207 9.72018L20.4571 8.65926L20.465 6.75909V4.851L19.2456 4.24137C18.5769 3.90884 17.9712 3.63173 17.8925 3.63965C17.8139 3.63965 17.3969 3.79799 16.9642 3.99593Z" fill="white"/>
<path d="M19.0095 11.4778C18.2779 11.8183 17.6407 12.1112 17.6092 12.1191C17.5542 12.1429 17.507 13.1167 17.4834 14.7398L17.4755 15.3573L15.8864 14.526L14.2895 13.6947L13.8961 13.8372C13.1724 14.0985 11.1034 15.0723 11.127 15.1435C11.1585 15.2306 14.3917 16.9804 16.9799 18.2947L17.6171 18.6272L18.2779 18.2947C18.6398 18.1126 19.2849 17.7721 19.7175 17.5346L20.5042 17.1071L20.5278 13.9718C20.5435 11.4857 20.5278 10.8365 20.4491 10.8444C20.3941 10.8523 19.749 11.1294 19.0095 11.4778Z" fill="white"/>
<path d="M11.898 18.2947L10.9933 18.6905L10.2145 18.3105C9.30195 17.8751 9.49075 17.8513 7.7994 18.6351C7.21725 18.9043 6.60365 19.1735 6.44631 19.2289C5.95071 19.411 5.99004 19.4585 7.20939 20.1157C8.47594 20.8045 10.8832 22 10.9933 22C11.1428 22 16.0595 19.5615 16.0595 19.4902C16.0595 19.4031 13.0623 17.8751 12.9128 17.883C12.8499 17.8909 12.3936 18.073 11.898 18.2947Z" fill="white"/>
</svg>
