<svg width="30" height="30" viewBox="0 0 30 30" fill="none" xmlns="http://www.w3.org/2000/svg">
<path d="M12.8883 0.979173C10.8716 2.02642 8.887 3.09527 8.54372 3.3004C8.32918 3.42996 8.32918 3.42996 8.54372 3.5919C8.99427 3.92659 12.6309 5.708 12.8669 5.708C12.9956 5.708 13.532 5.49207 14.0469 5.23296L14.9909 4.75791L15.9993 5.29773C16.6966 5.66481 17.0827 5.80516 17.2544 5.76198C17.8015 5.63242 21.7384 3.76464 21.7706 3.63509C21.7813 3.54872 21.4702 3.32199 21.0197 3.09527C20.5906 2.86854 19.7324 2.41509 19.1102 2.08041C18.488 1.74572 17.426 1.1843 16.7502 0.828023C16.0744 0.460945 15.4736 0.126256 15.42 0.0830708C15.1733 -0.132857 14.6691 0.0398855 12.8883 0.979173Z" fill="#141313"/>
<path d="M3.85584 5.69742L2 6.6583L2.01073 10.8797C2.01073 13.2009 2.04291 15.1335 2.08582 15.1659C2.15018 15.2306 4.47803 14.259 5.62586 13.676L6.23733 13.3737V11.2684C6.23733 10.1131 6.26951 9.16306 6.32314 9.16306C6.36605 9.16306 6.49478 9.22784 6.61278 9.30342C6.73079 9.38979 7.31007 9.71368 7.90007 10.0268C8.49008 10.3399 9.31609 10.7825 9.74519 11.02L10.5176 11.4411L11.1612 11.1604C11.8048 10.8905 12.0194 10.7933 13.886 9.92961C14.4545 9.6705 14.8193 9.44377 14.7978 9.3574C14.7442 9.20625 14.5082 9.0659 12.5129 8.00785C9.65937 6.49635 6.11932 4.73654 5.9155 4.73654C5.80823 4.73654 4.87494 5.1684 3.85584 5.69742Z" fill="#141313"/>
<path d="M23.133 5.44923C22.543 5.71914 21.7492 6.08622 21.363 6.26976C20.9768 6.4533 20.4619 6.69082 20.2152 6.79878C19.9577 6.90675 19.7539 7.0471 19.7539 7.10108C19.7539 7.20905 19.8075 7.24144 21.5454 8.2563C22.1568 8.60178 22.6503 8.91488 22.6503 8.94727C22.6503 8.97966 22.5216 9.06603 22.3606 9.13081C21.9852 9.28196 16.2138 11.8947 15.6238 12.1754C15.2269 12.3697 14.5404 12.6828 13.3174 13.2442C11.88 13.892 9.35903 15.0364 9.08012 15.1552C8.90848 15.2416 8.37211 15.4791 7.9001 15.7058C6.81664 16.2025 4.72479 17.1633 4.1026 17.4332C3.84515 17.5412 3.28732 17.8111 2.86895 18.0162L2.10731 18.3941L2.04294 20.8773C2.00003 22.2376 2.01076 23.4037 2.05367 23.4684C2.10731 23.5224 2.86895 23.9435 3.75933 24.3861L5.36844 25.1851L5.99063 24.9259C6.60209 24.6776 7.68556 24.181 9.21958 23.4576C9.67013 23.2417 9.99195 23.0258 9.95977 22.9502C9.92759 22.8422 7.62119 21.4603 7.25646 21.3199C7.20282 21.2984 7.17064 21.266 7.20282 21.2336C7.25646 21.1904 9.10157 20.3267 9.88468 19.9812C11.7727 19.1391 12.7167 18.718 15.9778 17.2173C18.0053 16.2888 19.6788 15.5331 19.7003 15.5331C19.7217 15.5331 20.1401 15.3495 20.6335 15.1228C21.127 14.8961 22.9614 14.054 24.71 13.255L27.896 11.8083L27.9067 9.21718V6.61524L26.244 5.78392C25.3321 5.33047 24.5061 4.9526 24.3989 4.96339C24.2916 4.96339 23.723 5.17932 23.133 5.44923Z" fill="#141313"/>
<path d="M25.9221 15.6517C24.9245 16.116 24.0555 16.5154 24.0126 16.5262C23.9375 16.5586 23.8732 17.8866 23.841 20.0998L23.8303 20.942L21.6633 19.8083L19.4857 18.6747L18.9493 18.8691C17.9624 19.2253 15.1411 20.5533 15.1732 20.6505C15.2162 20.7692 19.6251 23.1552 23.1544 24.9474L24.0234 25.4009L24.9245 24.9474C25.4179 24.6991 26.2976 24.2349 26.8876 23.911L27.9603 23.328L27.9925 19.0526C28.014 15.6625 27.9925 14.7772 27.8852 14.788C27.8101 14.7988 26.9305 15.1767 25.9221 15.6517Z" fill="#141313"/>
<path d="M16.2246 24.9473L14.9909 25.4871L13.9289 24.9689C12.6845 24.3751 12.942 24.3427 10.6356 25.4115C9.84176 25.7786 9.00502 26.1457 8.79047 26.2213C8.11464 26.4696 8.16828 26.5344 9.83103 27.4305C11.5581 28.3697 14.8407 30 14.9909 30C15.1947 30 21.8994 26.6747 21.8994 26.5775C21.8994 26.4588 17.8122 24.3751 17.6084 24.3859C17.5226 24.3967 16.9004 24.645 16.2246 24.9473Z" fill="#141313"/>
</svg>
