<svg width="887" height="75" viewBox="0 0 887 75" fill="none" xmlns="http://www.w3.org/2000/svg">
<g clip-path="url(#clip0_3160_2015)">
<path d="M0 75V0H850.392C853.946 0 857.318 1.57543 859.597 4.30179L880.636 29.4587C884.329 33.8752 884.365 40.2926 880.722 44.7506L859.601 70.5938C857.322 73.3824 853.911 75 850.309 75H0Z" fill="#613FB4"/>
<path d="M62.152 17.136L58.952 26.544C58.696 27.2693 58.248 27.7813 57.608 28.08C56.8827 28.4213 56.1787 28.464 55.496 28.208C54.7707 27.9093 53.9813 27.6533 53.128 27.44C52.3173 27.2267 51.5067 27.12 50.696 27.12C49.928 27.12 49.224 27.2693 48.584 27.568C47.9867 27.8667 47.56 28.4 47.304 29.168C47.048 29.936 47.24 30.576 47.88 31.088C48.5627 31.5573 49.4587 32.048 50.568 32.56C51.72 33.0293 53 33.584 54.408 34.224C55.816 34.8213 57.1387 35.632 58.376 36.656C59.6133 37.6373 60.68 38.9173 61.576 40.496C62.472 42.0747 62.984 44.0373 63.112 46.384C63.24 49.0293 62.792 51.3333 61.768 53.296C60.744 55.2587 59.3147 56.88 57.48 58.16C55.6453 59.44 53.4907 60.4 51.016 61.04C48.584 61.68 46.0027 62 43.272 62C40.3707 62 37.4053 61.6373 34.376 60.912C33.736 60.784 33.224 60.464 32.84 59.952C32.456 59.44 32.2853 58.8853 32.328 58.288L32.584 48.496C32.6267 47.728 32.9467 47.088 33.544 46.576C34.0987 46.064 34.7813 45.8507 35.592 45.936C36.0613 45.9787 36.5307 46.0213 37 46.064C37.512 46.1067 38.024 46.128 38.536 46.128C39.3467 46.128 40.136 46.0853 40.904 46C41.672 45.872 42.3333 45.68 42.888 45.424C43.4853 45.1253 43.9547 44.7413 44.296 44.272C44.6373 43.76 44.7653 43.12 44.68 42.352C44.552 41.3707 44.0613 40.6027 43.208 40.048C42.3547 39.4933 41.3307 38.9813 40.136 38.512C38.9413 38.0427 37.6613 37.552 36.296 37.04C34.9733 36.4853 33.736 35.7387 32.584 34.8C31.4747 33.8187 30.5573 32.5813 29.832 31.088C29.1493 29.5947 28.872 27.632 29 25.2C29.128 22.8533 29.6613 20.8053 30.6 19.056C31.5813 17.3067 32.84 15.856 34.376 14.704C35.9547 13.552 37.7893 12.6987 39.88 12.144C42.0133 11.5467 44.296 11.248 46.728 11.248C48.904 11.248 51.144 11.4613 53.448 11.888C55.752 12.3147 58.0987 12.9547 60.488 13.808C61.2133 14.0213 61.7253 14.4693 62.024 15.152C62.3227 15.792 62.3653 16.4533 62.152 17.136ZM101.474 42.352C101.474 45.1253 100.962 47.7493 99.938 50.224C98.914 52.6987 97.5273 54.8747 95.778 56.752C94.0713 58.5867 92.0873 60.0373 89.826 61.104C87.6073 62.1707 85.282 62.704 82.85 62.704C80.418 62.704 78.1353 62.192 76.002 61.168C73.8687 60.1013 71.9913 58.672 70.37 56.88C68.7913 55.0453 67.5327 52.912 66.594 50.48C65.698 48.0053 65.25 45.3813 65.25 42.608C65.25 39.2373 65.7407 36.3147 66.722 33.84C67.746 31.3653 69.09 29.3173 70.754 27.696C72.418 26.0747 74.3167 24.8587 76.45 24.048C78.5833 23.2373 80.7593 22.832 82.978 22.832C85.282 22.832 87.522 23.2587 89.698 24.112C91.9167 24.9227 93.9007 26.16 95.65 27.824C97.3993 29.4453 98.8073 31.472 99.874 33.904C100.941 36.336 101.474 39.152 101.474 42.352ZM83.298 36.656C82.53 36.656 81.7833 36.848 81.058 37.232C80.3753 37.5733 79.778 38.064 79.266 38.704C78.754 39.344 78.3487 40.0907 78.05 40.944C77.7513 41.7973 77.602 42.6933 77.602 43.632C77.602 44.6133 77.7513 45.5307 78.05 46.384C78.3487 47.1947 78.754 47.92 79.266 48.56C79.778 49.2 80.3753 49.712 81.058 50.096C81.7833 50.4373 82.53 50.608 83.298 50.608C84.1087 50.608 84.8553 50.4373 85.538 50.096C86.2633 49.712 86.882 49.2 87.394 48.56C87.906 47.92 88.3113 47.1947 88.61 46.384C88.9087 45.5307 89.058 44.6133 89.058 43.632C89.058 42.6933 88.9087 41.7973 88.61 40.944C88.3113 40.0907 87.906 39.344 87.394 38.704C86.882 38.064 86.2633 37.5733 85.538 37.232C84.8553 36.848 84.1087 36.656 83.298 36.656ZM103.625 16.24C103.625 15.5147 103.86 14.9173 104.329 14.448C104.798 13.936 105.396 13.6373 106.121 13.552L113.225 13.168C114.036 13.168 114.676 13.4027 115.145 13.872C115.7 14.3413 115.998 14.96 116.041 15.728L117.513 59.248C117.556 59.9307 117.321 60.5707 116.809 61.168C116.212 61.68 115.572 61.936 114.889 61.936L106.697 61.872C105.972 61.8293 105.353 61.5733 104.841 61.104C104.329 60.592 104.073 59.9733 104.073 59.248L103.625 16.24ZM143.104 26.928C143.232 27.056 143.381 27.0773 143.552 26.992C143.68 26.9493 143.787 26.8213 143.872 26.608V26.544C143.957 25.8613 144.235 25.3067 144.704 24.88C145.216 24.4533 145.792 24.24 146.432 24.24L153.6 24.176C154.325 24.176 154.944 24.432 155.456 24.944C155.968 25.456 156.245 26.0747 156.288 26.8L156.8 59.184C156.8 59.8667 156.565 60.5067 156.096 61.104C155.584 61.616 154.944 61.872 154.176 61.872L147.136 61.936C146.539 61.936 145.984 61.7653 145.472 61.424C145.003 61.04 144.704 60.5493 144.576 59.952L144.192 58.48C144.149 58.352 144.043 58.2453 143.872 58.16C143.787 58.1173 143.659 58.1387 143.488 58.224C141.696 59.5893 139.947 60.592 138.24 61.232C136.533 61.8293 134.891 62.128 133.312 62.128C131.349 62.128 129.536 61.6587 127.872 60.72C126.251 59.7813 124.843 58.4373 123.648 56.688C122.496 54.9387 121.579 52.8267 120.896 50.352C120.256 47.8347 119.957 45.0187 120 41.904C120.043 38.576 120.512 35.8027 121.408 33.584C122.347 31.3653 123.52 29.5947 124.928 28.272C126.336 26.9067 127.915 25.9467 129.664 25.392C131.413 24.7947 133.141 24.496 134.848 24.496C136.555 24.496 138.133 24.7307 139.584 25.2C141.077 25.6267 142.251 26.2027 143.104 26.928ZM143.168 46.704C143.296 46.6613 143.36 46.5547 143.36 46.384V41.2C143.36 41.0293 143.253 40.9013 143.04 40.816C142.613 40.688 142.187 40.6027 141.76 40.56C141.376 40.5173 141.013 40.496 140.672 40.496C139.691 40.496 138.837 40.6667 138.112 41.008C137.387 41.3493 136.768 41.776 136.256 42.288C135.787 42.8 135.424 43.376 135.168 44.016C134.955 44.656 134.848 45.296 134.848 45.936C134.848 46.832 135.083 47.6 135.552 48.24C136.064 48.88 136.811 49.2 137.792 49.2C138.475 49.2 139.264 49.008 140.16 48.624C141.056 48.24 142.059 47.6 143.168 46.704ZM189.131 62L181.643 61.808C180.875 61.7227 180.256 61.4453 179.787 60.976C179.317 60.464 179.083 59.824 179.083 59.056C179.125 58.16 179.168 57.136 179.211 55.984C179.253 54.7893 179.275 53.5307 179.275 52.208C179.275 50.6293 179.232 49.0293 179.147 47.408C179.061 45.7867 178.912 44.2933 178.699 42.928C178.485 41.5627 178.187 40.4107 177.803 39.472C177.419 38.5333 176.928 37.9573 176.331 37.744C175.819 37.5733 175.371 37.7653 174.987 38.32C174.603 38.832 174.283 39.6 174.027 40.624C173.771 41.648 173.557 42.864 173.387 44.272C173.216 45.6373 173.088 47.0667 173.003 48.56C172.917 50.0533 172.853 51.5467 172.811 53.04C172.811 54.5333 172.811 55.8987 172.811 57.136V59.248C172.811 60.016 172.555 60.656 172.043 61.168C171.531 61.68 170.912 61.936 170.187 61.936H162.443C161.717 61.9787 161.099 61.744 160.587 61.232C160.075 60.72 159.819 60.1013 159.819 59.376L159.562 26.8C159.562 26.0747 159.819 25.456 160.331 24.944C160.843 24.432 161.461 24.176 162.187 24.176L168.523 24.112C169.291 24.112 169.931 24.368 170.443 24.88C170.827 25.264 171.061 25.7333 171.147 26.288C171.232 26.5013 171.339 26.6293 171.467 26.672C171.595 26.7573 171.744 26.7147 171.915 26.544C172.811 25.6907 174.133 24.9653 175.883 24.368C177.632 23.7707 179.467 23.5147 181.387 23.6C183.691 23.6853 185.568 24.3893 187.019 25.712C188.512 27.0347 189.664 28.7413 190.475 30.832C191.328 32.9227 191.904 35.2693 192.203 37.872C192.544 40.4747 192.715 43.12 192.715 45.808C192.715 48.4107 192.608 50.9067 192.395 53.296C192.224 55.6853 192.032 57.7973 191.819 59.632C191.733 60.3573 191.435 60.9333 190.923 61.36C190.411 61.7867 189.813 62 189.131 62ZM217.854 26.928C217.982 27.056 218.131 27.0773 218.302 26.992C218.43 26.9493 218.537 26.8213 218.622 26.608V26.544C218.707 25.8613 218.985 25.3067 219.454 24.88C219.966 24.4533 220.542 24.24 221.182 24.24L228.35 24.176C229.075 24.176 229.694 24.432 230.206 24.944C230.718 25.456 230.995 26.0747 231.038 26.8L231.55 59.184C231.55 59.8667 231.315 60.5067 230.846 61.104C230.334 61.616 229.694 61.872 228.926 61.872L221.886 61.936C221.289 61.936 220.734 61.7653 220.222 61.424C219.753 61.04 219.454 60.5493 219.326 59.952L218.942 58.48C218.899 58.352 218.793 58.2453 218.622 58.16C218.537 58.1173 218.409 58.1387 218.238 58.224C216.446 59.5893 214.697 60.592 212.99 61.232C211.283 61.8293 209.641 62.128 208.062 62.128C206.099 62.128 204.286 61.6587 202.622 60.72C201.001 59.7813 199.593 58.4373 198.398 56.688C197.246 54.9387 196.329 52.8267 195.646 50.352C195.006 47.8347 194.707 45.0187 194.75 41.904C194.793 38.576 195.262 35.8027 196.158 33.584C197.097 31.3653 198.27 29.5947 199.678 28.272C201.086 26.9067 202.665 25.9467 204.414 25.392C206.163 24.7947 207.891 24.496 209.598 24.496C211.305 24.496 212.883 24.7307 214.334 25.2C215.827 25.6267 217.001 26.2027 217.854 26.928ZM217.918 46.704C218.046 46.6613 218.11 46.5547 218.11 46.384V41.2C218.11 41.0293 218.003 40.9013 217.79 40.816C217.363 40.688 216.937 40.6027 216.51 40.56C216.126 40.5173 215.763 40.496 215.422 40.496C214.441 40.496 213.587 40.6667 212.862 41.008C212.137 41.3493 211.518 41.776 211.006 42.288C210.537 42.8 210.174 43.376 209.918 44.016C209.705 44.656 209.598 45.296 209.598 45.936C209.598 46.832 209.833 47.6 210.302 48.24C210.814 48.88 211.561 49.2 212.542 49.2C213.225 49.2 214.014 49.008 214.91 48.624C215.806 48.24 216.809 47.6 217.918 46.704ZM235.849 24.432L237.705 21.936C237.79 21.7653 237.811 21.5947 237.769 21.424C237.683 21.2533 237.555 21.168 237.385 21.168L236.105 21.232C235.678 21.232 235.251 21.0613 234.825 20.72C234.483 20.2933 234.312 19.8453 234.312 19.376L234.377 14.64C234.377 14.1707 234.547 13.7653 234.889 13.424C235.23 13.04 235.657 12.848 236.169 12.848L242.185 12.912C242.739 12.912 243.166 13.0827 243.465 13.424C243.806 13.7653 243.977 14.2133 243.977 14.768L243.72 21.04C243.72 21.7227 243.443 22.3413 242.889 22.896L238.665 26.928C238.238 27.2693 237.79 27.4187 237.321 27.376C236.851 27.376 236.446 27.2053 236.105 26.864L235.977 26.736C235.678 26.3947 235.507 26.0107 235.465 25.584C235.465 25.1573 235.593 24.7733 235.849 24.432ZM272.495 29.424L270.767 34.224C270.511 34.9067 270.084 35.4187 269.487 35.76C268.889 36.0587 268.271 36.1013 267.631 35.888C267.247 35.8027 266.841 35.7173 266.415 35.632C265.988 35.5467 265.561 35.504 265.135 35.504C264.495 35.504 263.919 35.632 263.407 35.888C262.895 36.1013 262.553 36.528 262.383 37.168C262.255 37.7227 262.425 38.2133 262.895 38.64C263.407 39.0667 264.047 39.5147 264.815 39.984C265.625 40.4107 266.5 40.9227 267.439 41.52C268.42 42.0747 269.295 42.7787 270.063 43.632C270.873 44.4427 271.492 45.4453 271.919 46.64C272.388 47.792 272.537 49.2213 272.367 50.928C272.153 53.0187 271.471 54.8107 270.319 56.304C269.209 57.7973 267.823 59.0347 266.159 60.016C264.495 60.9547 262.639 61.6373 260.591 62.064C258.543 62.5333 256.495 62.768 254.447 62.768C253.977 62.768 253.487 62.7467 252.975 62.704C252.505 62.704 252.036 62.6827 251.567 62.64C250.927 62.5547 250.393 62.2987 249.967 61.872C249.54 61.4027 249.284 60.8693 249.199 60.272L248.751 55.024C248.665 54.2987 248.836 53.68 249.263 53.168C249.689 52.6133 250.265 52.2933 250.991 52.208C251.545 52.1227 252.1 51.9947 252.655 51.824C253.209 51.6533 253.679 51.3973 254.062 51.056C254.447 50.7147 254.724 50.288 254.895 49.776C255.065 49.2213 255.044 48.5387 254.831 47.728C254.489 46.5333 253.828 45.5307 252.847 44.72C251.908 43.9093 250.927 43.056 249.903 42.16C248.921 41.2213 248.025 40.1547 247.215 38.96C246.447 37.7227 246.062 36.1013 246.062 34.096C246.062 33.3707 246.127 32.5813 246.255 31.728C246.468 30.32 246.959 29.1467 247.727 28.208C248.537 27.2267 249.54 26.4587 250.735 25.904C251.929 25.3067 253.273 24.88 254.767 24.624C256.26 24.368 257.817 24.24 259.439 24.24C261.487 24.24 263.492 24.4107 265.455 24.752C267.46 25.0933 269.252 25.52 270.831 26.032C271.513 26.2453 272.025 26.6933 272.367 27.376C272.708 28.0587 272.751 28.7413 272.495 29.424ZM294.703 15.152C294.745 14.4267 295.001 13.8507 295.471 13.424C295.983 12.9547 296.601 12.6987 297.327 12.656H311.279C312.004 12.6133 312.644 12.8693 313.199 13.424C313.711 13.936 313.967 14.5547 313.967 15.28C313.924 17.2 313.903 19.44 313.903 22C313.903 24.5173 313.903 27.0347 313.903 29.552C313.903 32.112 313.903 34.4587 313.903 36.592C313.945 38.6827 314.009 40.2827 314.095 41.392C314.18 42.7147 314.457 43.7813 314.927 44.592C315.396 45.36 315.908 45.744 316.463 45.744C316.932 45.744 317.38 45.4027 317.807 44.72C318.233 43.9947 318.553 42.8213 318.767 41.2C318.895 40.2187 318.98 39.088 319.023 37.808C319.108 36.4853 319.172 35.0987 319.215 33.648C319.257 32.1547 319.279 30.6187 319.279 29.04C319.321 27.4187 319.343 25.8187 319.343 24.24C319.343 22.576 319.321 20.976 319.279 19.44C319.279 17.8613 319.279 16.4533 319.279 15.216C319.279 14.4907 319.535 13.872 320.047 13.36C320.559 12.8053 321.177 12.528 321.903 12.528L334.319 12.4C335.044 12.3573 335.641 12.5707 336.111 13.04C336.623 13.5093 336.921 14.1067 337.007 14.832C337.22 17.136 337.391 19.568 337.519 22.128C337.689 24.688 337.775 27.2907 337.775 29.936C337.775 33.776 337.497 37.552 336.943 41.264C336.431 44.976 335.428 48.3253 333.935 51.312C332.441 54.256 330.351 56.6667 327.663 58.544C324.975 60.4213 321.476 61.4453 317.167 61.616C313.967 61.744 311.172 61.4453 308.783 60.72C306.393 59.952 304.345 58.864 302.639 57.456C300.932 56.0053 299.524 54.256 298.415 52.208C297.305 50.16 296.431 47.92 295.791 45.488C295.151 43.056 294.703 40.4747 294.447 37.744C294.191 34.9707 294.062 32.1333 294.062 29.232C294.062 26.8853 294.127 24.5387 294.255 22.192C294.383 19.8027 294.532 17.456 294.703 15.152ZM341.25 16.24C341.25 15.5147 341.485 14.9173 341.954 14.448C342.423 13.936 343.021 13.6373 343.746 13.552L350.85 13.168C351.661 13.168 352.301 13.4027 352.77 13.872C353.325 14.3413 353.623 14.96 353.666 15.728L355.138 59.248C355.181 59.9307 354.946 60.5707 354.434 61.168C353.837 61.68 353.197 61.936 352.514 61.936L344.322 61.872C343.597 61.8293 342.978 61.5733 342.466 61.104C341.954 60.592 341.698 59.9733 341.698 59.248L341.25 16.24ZM364.281 16.88C364.793 16.0267 365.54 15.6 366.521 15.6L370.425 15.472C371.108 15.472 371.769 15.7493 372.409 16.304C372.921 16.9013 373.156 17.5627 373.113 18.288C373.07 19.0133 373.028 19.8453 372.985 20.784C372.942 21.68 372.878 22.6613 372.793 23.728C372.793 23.8133 372.836 23.9413 372.921 24.112C373.006 24.1973 373.113 24.24 373.241 24.24H375.609C376.292 24.1973 376.91 24.4533 377.465 25.008C378.062 25.52 378.318 26.1387 378.233 26.864L378.105 34.16C378.105 34.8853 377.849 35.504 377.337 36.016C376.868 36.4853 376.27 36.7413 375.545 36.784H372.601C372.302 36.784 372.153 36.9333 372.153 37.232C372.11 38.1707 372.068 39.0453 372.025 39.856C372.025 40.624 372.025 41.3707 372.025 42.096C372.025 42.8213 372.025 43.4613 372.025 44.016C372.068 44.528 372.11 44.9547 372.153 45.296C372.281 46.6187 372.772 47.4507 373.625 47.792C374.478 48.0907 375.374 48.1973 376.313 48.112C377.124 47.984 377.828 48.2187 378.425 48.816C379.065 49.3707 379.342 50.0533 379.257 50.864L378.745 59.632C378.702 60.3147 378.446 60.8907 377.977 61.36C377.55 61.8293 376.974 62.0853 376.249 62.128C375.908 62.1707 375.545 62.192 375.161 62.192C374.777 62.192 374.35 62.192 373.881 62.192C372.857 62.192 371.748 62.1493 370.553 62.064C369.358 61.9787 368.185 61.808 367.033 61.552C365.924 61.2533 364.878 60.8693 363.897 60.4C362.916 59.9307 362.126 59.312 361.529 58.544C361.145 58.0747 360.825 57.328 360.569 56.304C360.313 55.2373 360.1 53.9787 359.929 52.528C359.801 51.0773 359.694 49.456 359.609 47.664C359.566 45.872 359.545 44.016 359.545 42.096C359.545 41.2427 359.545 40.4107 359.545 39.6C359.545 38.7467 359.566 37.8933 359.609 37.04H359.289C358.564 37.04 357.945 36.784 357.433 36.272C356.878 35.76 356.601 35.1413 356.601 34.416V30.448C356.601 29.936 356.729 29.488 356.985 29.104L364.281 16.88ZM382.823 27.184C382.823 26.4587 383.079 25.84 383.591 25.328C384.103 24.816 384.722 24.56 385.447 24.56H393.767C394.492 24.56 395.111 24.816 395.623 25.328C396.135 25.7973 396.391 26.3947 396.391 27.12L397.031 59.184C397.031 59.9093 396.775 60.528 396.263 61.04C395.666 61.6373 395.026 61.8933 394.343 61.808L384.999 61.744C384.231 61.744 383.612 61.4667 383.143 60.912C382.631 60.4 382.375 59.7813 382.375 59.056L382.823 27.184ZM389.543 8.496C388.434 8.496 387.41 8.688 386.471 9.072C385.532 9.41333 384.7 9.904 383.975 10.544C383.292 11.1413 382.759 11.8667 382.375 12.72C381.948 13.5307 381.735 14.4053 381.735 15.344C381.735 16.3253 381.948 17.2427 382.375 18.096C382.759 18.9067 383.292 19.632 383.975 20.272C384.7 20.8693 385.532 21.36 386.471 21.744C387.41 22.0853 388.434 22.256 389.543 22.256C390.61 22.256 391.612 22.0853 392.551 21.744C393.49 21.36 394.3 20.8693 394.983 20.272C395.708 19.632 396.263 18.9067 396.647 18.096C397.074 17.2427 397.287 16.3253 397.287 15.344C397.287 14.4053 397.074 13.5307 396.647 12.72C396.263 11.8667 395.708 11.1413 394.983 10.544C394.3 9.904 393.49 9.41333 392.551 9.072C391.612 8.688 390.61 8.496 389.543 8.496ZM429.317 61.936L421.957 61.744C421.189 61.744 420.549 61.4667 420.037 60.912C419.567 60.4427 419.333 59.8027 419.333 58.992C419.375 58.096 419.418 57.072 419.461 55.92C419.503 54.7253 419.525 53.4667 419.525 52.144C419.525 50.5653 419.482 48.9867 419.397 47.408C419.311 45.7867 419.162 44.2933 418.949 42.928C418.735 41.5627 418.437 40.4107 418.053 39.472C417.669 38.5333 417.178 37.9573 416.581 37.744C416.069 37.5733 415.621 37.7653 415.237 38.32C414.853 38.832 414.533 39.6 414.277 40.624C414.021 41.648 413.807 42.864 413.637 44.272C413.466 45.6373 413.338 47.0667 413.253 48.56C413.167 50.0533 413.103 51.5467 413.061 53.04C413.061 54.5333 413.061 55.8987 413.061 57.136V59.248C413.061 60.016 412.805 60.656 412.293 61.168C411.781 61.68 411.162 61.936 410.437 61.936H402.693C401.967 61.9787 401.349 61.744 400.837 61.232C400.325 60.72 400.069 60.1013 400.069 59.376L399.812 26.8C399.812 26.0747 400.069 25.456 400.581 24.944C401.093 24.432 401.711 24.176 402.437 24.176L408.773 24.112C409.541 24.112 410.181 24.368 410.693 24.88C411.119 25.3067 411.375 25.84 411.461 26.48C411.461 26.6507 411.546 26.7787 411.717 26.864C411.845 26.9067 411.994 26.8853 412.165 26.8C413.402 25.7333 414.703 24.9227 416.069 24.368C417.477 23.7707 418.863 23.472 420.229 23.472C421.722 23.472 423.13 23.8347 424.453 24.56C425.775 25.2853 426.863 26.4373 427.717 28.016C427.759 28.1013 427.866 28.1867 428.037 28.272C428.122 28.272 428.25 28.2293 428.421 28.144C429.829 26.6507 431.407 25.4987 433.157 24.688C434.949 23.8773 436.741 23.472 438.533 23.472C440.709 23.472 442.757 24.1333 444.677 25.456C446.597 26.736 448.069 28.784 449.093 31.6C449.989 34.1173 450.607 36.9333 450.949 40.048C451.29 43.12 451.461 46.1707 451.461 49.2C451.461 51.1627 451.397 53.04 451.269 54.832C451.183 56.624 451.055 58.224 450.885 59.632C450.799 60.3573 450.501 60.9333 449.989 61.36C449.519 61.7867 448.922 62 448.197 62L440.709 61.808C439.941 61.7227 439.322 61.4453 438.853 60.976C438.383 60.3787 438.149 59.7387 438.149 59.056C438.191 58.16 438.234 57.136 438.277 55.984C438.319 54.7893 438.341 53.5307 438.341 52.208C438.341 50.6293 438.298 49.0293 438.213 47.408C438.127 45.7867 437.978 44.2933 437.765 42.928C437.551 41.5627 437.253 40.4107 436.869 39.472C436.485 38.5333 435.994 37.9573 435.397 37.744C434.885 37.5733 434.437 37.7867 434.053 38.384C433.711 38.9813 433.413 39.856 433.157 41.008C432.943 42.1173 432.751 43.44 432.581 44.976C432.453 46.4693 432.346 48.048 432.261 49.712C432.175 51.376 432.111 53.04 432.069 54.704C432.026 56.368 432.005 57.904 432.005 59.312C432.005 59.9947 431.727 60.6133 431.173 61.168C430.661 61.68 430.042 61.936 429.317 61.936ZM476.979 26.928C477.107 27.056 477.256 27.0773 477.427 26.992C477.555 26.9493 477.662 26.8213 477.747 26.608V26.544C477.832 25.8613 478.11 25.3067 478.579 24.88C479.091 24.4533 479.667 24.24 480.307 24.24L487.475 24.176C488.2 24.176 488.819 24.432 489.331 24.944C489.843 25.456 490.12 26.0747 490.163 26.8L490.675 59.184C490.675 59.8667 490.44 60.5067 489.971 61.104C489.459 61.616 488.819 61.872 488.051 61.872L481.011 61.936C480.414 61.936 479.859 61.7653 479.347 61.424C478.878 61.04 478.579 60.5493 478.451 59.952L478.067 58.48C478.024 58.352 477.918 58.2453 477.747 58.16C477.662 58.1173 477.534 58.1387 477.363 58.224C475.571 59.5893 473.822 60.592 472.115 61.232C470.408 61.8293 468.766 62.128 467.187 62.128C465.224 62.128 463.411 61.6587 461.747 60.72C460.126 59.7813 458.718 58.4373 457.523 56.688C456.371 54.9387 455.454 52.8267 454.771 50.352C454.131 47.8347 453.832 45.0187 453.875 41.904C453.918 38.576 454.387 35.8027 455.283 33.584C456.222 31.3653 457.395 29.5947 458.803 28.272C460.211 26.9067 461.79 25.9467 463.539 25.392C465.288 24.7947 467.016 24.496 468.723 24.496C470.43 24.496 472.008 24.7307 473.459 25.2C474.952 25.6267 476.126 26.2027 476.979 26.928ZM477.043 46.704C477.171 46.6613 477.235 46.5547 477.235 46.384V41.2C477.235 41.0293 477.128 40.9013 476.915 40.816C476.488 40.688 476.062 40.6027 475.635 40.56C475.251 40.5173 474.888 40.496 474.547 40.496C473.566 40.496 472.712 40.6667 471.987 41.008C471.262 41.3493 470.643 41.776 470.131 42.288C469.662 42.8 469.299 43.376 469.043 44.016C468.83 44.656 468.723 45.296 468.723 45.936C468.723 46.832 468.958 47.6 469.427 48.24C469.939 48.88 470.686 49.2 471.667 49.2C472.35 49.2 473.139 49.008 474.035 48.624C474.931 48.24 475.934 47.6 477.043 46.704ZM500.094 16.88C500.606 16.0267 501.352 15.6 502.334 15.6L506.238 15.472C506.92 15.472 507.582 15.7493 508.222 16.304C508.734 16.9013 508.968 17.5627 508.926 18.288C508.883 19.0133 508.84 19.8453 508.798 20.784C508.755 21.68 508.691 22.6613 508.606 23.728C508.606 23.8133 508.648 23.9413 508.734 24.112C508.819 24.1973 508.926 24.24 509.054 24.24H511.422C512.104 24.1973 512.723 24.4533 513.278 25.008C513.875 25.52 514.131 26.1387 514.046 26.864L513.918 34.16C513.918 34.8853 513.662 35.504 513.15 36.016C512.68 36.4853 512.083 36.7413 511.358 36.784H508.414C508.115 36.784 507.966 36.9333 507.966 37.232C507.923 38.1707 507.88 39.0453 507.838 39.856C507.838 40.624 507.838 41.3707 507.838 42.096C507.838 42.8213 507.838 43.4613 507.838 44.016C507.88 44.528 507.923 44.9547 507.966 45.296C508.094 46.6187 508.584 47.4507 509.438 47.792C510.291 48.0907 511.187 48.1973 512.126 48.112C512.936 47.984 513.64 48.2187 514.238 48.816C514.878 49.3707 515.155 50.0533 515.07 50.864L514.558 59.632C514.515 60.3147 514.259 60.8907 513.79 61.36C513.363 61.8293 512.787 62.0853 512.062 62.128C511.72 62.1707 511.358 62.192 510.974 62.192C510.59 62.192 510.163 62.192 509.694 62.192C508.67 62.192 507.56 62.1493 506.366 62.064C505.171 61.9787 503.998 61.808 502.845 61.552C501.736 61.2533 500.691 60.8693 499.71 60.4C498.728 59.9307 497.939 59.312 497.342 58.544C496.958 58.0747 496.638 57.328 496.382 56.304C496.126 55.2373 495.912 53.9787 495.742 52.528C495.614 51.0773 495.507 49.456 495.422 47.664C495.379 45.872 495.358 44.016 495.358 42.096C495.358 41.2427 495.358 40.4107 495.358 39.6C495.358 38.7467 495.379 37.8933 495.422 37.04H495.102C494.376 37.04 493.758 36.784 493.245 36.272C492.691 35.76 492.413 35.1413 492.413 34.416V30.448C492.413 29.936 492.541 29.488 492.797 29.104L500.094 16.88ZM549.292 40.752C549.292 41.4347 549.057 42.032 548.588 42.544C548.161 43.056 547.585 43.3547 546.86 43.44C545.58 43.568 544.214 43.6747 542.764 43.76C541.356 43.8453 540.012 43.9307 538.732 44.016C537.452 44.1013 536.3 44.1867 535.276 44.272C534.294 44.3147 533.59 44.3573 533.164 44.4C532.95 44.4 532.844 44.528 532.844 44.784C532.801 44.9973 532.758 45.296 532.716 45.68C532.716 46.0213 532.716 46.4053 532.716 46.832C532.716 47.6853 532.801 48.5173 532.972 49.328C533.185 50.1387 533.633 50.6507 534.316 50.864C534.657 50.992 535.041 50.992 535.468 50.864C535.937 50.736 536.406 50.5227 536.876 50.224C537.345 49.9253 537.814 49.6053 538.284 49.264C538.753 48.88 539.18 48.496 539.564 48.112C540.076 47.6 540.673 47.344 541.356 47.344C542.081 47.344 542.721 47.6213 543.276 48.176L547.436 52.592C547.948 53.104 548.204 53.7013 548.204 54.384C548.204 54.9813 547.969 55.5573 547.5 56.112C546.988 56.752 546.284 57.456 545.388 58.224C544.534 58.9493 543.489 59.632 542.252 60.272C541.014 60.8693 539.585 61.36 537.964 61.744C536.385 62.0853 534.614 62.1707 532.652 62C530.092 61.8293 527.873 61.2747 525.996 60.336C524.161 59.3547 522.646 58.1173 521.452 56.624C520.257 55.088 519.382 53.3387 518.828 51.376C518.273 49.3707 517.995 47.2373 517.995 44.976C517.995 43.9093 518.059 42.8 518.188 41.648C518.529 38.576 519.212 35.9307 520.236 33.712C521.26 31.4507 522.497 29.5947 523.948 28.144C525.398 26.6933 526.977 25.6267 528.684 24.944C530.433 24.2187 532.161 23.8773 533.868 23.92C536.47 23.9627 538.71 24.4533 540.588 25.392C542.508 26.288 544.108 27.504 545.388 29.04C546.668 30.576 547.628 32.368 548.268 34.416C548.908 36.4213 549.249 38.5333 549.292 40.752ZM533.484 36.4C533.484 36.528 533.526 36.6347 533.612 36.72C533.74 36.848 533.846 36.912 533.932 36.912L537.708 36.848C537.836 36.848 537.964 36.784 538.092 36.656C538.177 36.5707 538.198 36.4427 538.156 36.272C538.07 35.9733 537.964 35.5893 537.836 35.12C537.708 34.6507 537.537 34.224 537.324 33.84C537.11 33.456 536.833 33.1573 536.492 32.944C536.193 32.688 535.852 32.6453 535.468 32.816C535.084 32.9867 534.764 33.2213 534.508 33.52C534.252 33.8187 534.038 34.1387 533.868 34.48C533.74 34.8213 533.633 35.1627 533.548 35.504C533.505 35.8453 533.484 36.144 533.484 36.4ZM571.066 15.344C571.066 14.6187 571.279 14.0213 571.706 13.552C572.132 13.04 572.666 12.7413 573.306 12.656C574.33 12.4853 575.332 12.3573 576.314 12.272C577.295 12.1867 578.255 12.144 579.194 12.144C583.332 12.144 586.98 12.8693 590.138 14.32C593.338 15.7707 596.026 17.6907 598.202 20.08C600.378 22.4267 602.042 25.1147 603.194 28.144C604.388 31.1307 605.071 34.1813 605.242 37.296C605.37 40.4533 604.943 43.5253 603.962 46.512C603.023 49.4987 601.466 52.1653 599.29 54.512C597.114 56.816 594.319 58.6933 590.906 60.144C587.535 61.552 583.524 62.256 578.874 62.256C577.978 62.256 577.06 62.2347 576.122 62.192C575.226 62.1493 574.287 62.064 573.306 61.936C572.623 61.8507 572.047 61.552 571.578 61.04C571.151 60.528 570.938 59.9093 570.938 59.184L571.066 15.344ZM584.314 45.68C584.314 45.8507 584.356 45.9787 584.442 46.064C584.527 46.1493 584.655 46.192 584.826 46.192C585.252 46.1493 585.828 46 586.554 45.744C587.322 45.4453 588.068 44.976 588.794 44.336C589.519 43.6533 590.159 42.736 590.714 41.584C591.268 40.432 591.546 38.9173 591.546 37.04C591.546 35.1627 591.268 33.6907 590.714 32.624C590.159 31.5147 589.498 30.6827 588.73 30.128C588.004 29.5733 587.258 29.232 586.49 29.104C585.722 28.9333 585.146 28.848 584.762 28.848C584.634 28.848 584.527 28.8907 584.442 28.976C584.356 29.1467 584.314 29.2533 584.314 29.296V45.68ZM638.604 40.752C638.604 41.4347 638.369 42.032 637.9 42.544C637.473 43.056 636.897 43.3547 636.172 43.44C634.892 43.568 633.527 43.6747 632.076 43.76C630.668 43.8453 629.324 43.9307 628.044 44.016C626.764 44.1013 625.612 44.1867 624.588 44.272C623.607 44.3147 622.903 44.3573 622.476 44.4C622.263 44.4 622.156 44.528 622.156 44.784C622.113 44.9973 622.071 45.296 622.028 45.68C622.028 46.0213 622.028 46.4053 622.028 46.832C622.028 47.6853 622.113 48.5173 622.284 49.328C622.497 50.1387 622.945 50.6507 623.628 50.864C623.969 50.992 624.353 50.992 624.78 50.864C625.249 50.736 625.719 50.5227 626.188 50.224C626.657 49.9253 627.127 49.6053 627.596 49.264C628.065 48.88 628.492 48.496 628.876 48.112C629.388 47.6 629.985 47.344 630.668 47.344C631.393 47.344 632.033 47.6213 632.588 48.176L636.748 52.592C637.26 53.104 637.516 53.7013 637.516 54.384C637.516 54.9813 637.281 55.5573 636.812 56.112C636.3 56.752 635.596 57.456 634.7 58.224C633.847 58.9493 632.801 59.632 631.564 60.272C630.327 60.8693 628.897 61.36 627.276 61.744C625.697 62.0853 623.927 62.1707 621.964 62C619.404 61.8293 617.185 61.2747 615.308 60.336C613.473 59.3547 611.959 58.1173 610.764 56.624C609.569 55.088 608.695 53.3387 608.14 51.376C607.585 49.3707 607.308 47.2373 607.308 44.976C607.308 43.9093 607.372 42.8 607.5 41.648C607.841 38.576 608.524 35.9307 609.548 33.712C610.572 31.4507 611.809 29.5947 613.26 28.144C614.711 26.6933 616.289 25.6267 617.996 24.944C619.745 24.2187 621.473 23.8773 623.18 23.92C625.783 23.9627 628.023 24.4533 629.9 25.392C631.82 26.288 633.42 27.504 634.7 29.04C635.98 30.576 636.94 32.368 637.58 34.416C638.22 36.4213 638.561 38.5333 638.604 40.752ZM622.796 36.4C622.796 36.528 622.839 36.6347 622.924 36.72C623.052 36.848 623.159 36.912 623.244 36.912L627.02 36.848C627.148 36.848 627.276 36.784 627.404 36.656C627.489 36.5707 627.511 36.4427 627.468 36.272C627.383 35.9733 627.276 35.5893 627.148 35.12C627.02 34.6507 626.849 34.224 626.636 33.84C626.423 33.456 626.145 33.1573 625.804 32.944C625.505 32.688 625.164 32.6453 624.78 32.816C624.396 32.9867 624.076 33.2213 623.82 33.52C623.564 33.8187 623.351 34.1387 623.18 34.48C623.052 34.8213 622.945 35.1627 622.86 35.504C622.817 35.8453 622.796 36.144 622.796 36.4ZM658.663 31.28C659.345 31.28 659.985 31.536 660.583 32.048C661.095 32.56 661.351 33.2 661.351 33.968L661.287 39.6C661.244 40.3253 660.967 40.944 660.455 41.456C659.985 41.9253 659.388 42.1813 658.663 42.224H657.831C657.703 42.224 657.596 42.2667 657.51 42.352C657.425 42.5227 657.383 42.6507 657.383 42.736C657.553 44.272 657.724 45.808 657.895 47.344C658.108 48.88 658.3 50.352 658.471 51.76C658.684 53.168 658.876 54.4907 659.047 55.728C659.26 56.9653 659.431 58.032 659.559 58.928C659.687 59.7387 659.473 60.4427 658.919 61.04C658.407 61.7227 657.745 62.0213 656.935 61.936L648.295 61.808C647.612 61.808 647.036 61.5947 646.567 61.168C646.097 60.6987 645.82 60.1227 645.735 59.44C645.649 58.6293 645.543 57.6267 645.415 56.432C645.329 55.2373 645.223 53.9147 645.095 52.464C645.009 51.0133 644.903 49.4773 644.775 47.856C644.689 46.2347 644.604 44.5707 644.519 42.864C644.519 42.5227 644.369 42.3947 644.071 42.48H643.815C643.089 42.48 642.471 42.224 641.959 41.712C641.489 41.2427 641.212 40.624 641.127 39.856L641.062 34.352C641.062 33.6267 641.297 33.008 641.767 32.496C642.279 31.9413 642.897 31.664 643.623 31.664H643.751C644.007 31.664 644.135 31.5147 644.135 31.216C644.135 28.6987 644.199 26.4373 644.327 24.432C644.497 22.384 644.753 20.8053 645.095 19.696C645.564 18.2027 646.332 17.008 647.399 16.112C648.508 15.216 649.703 14.5333 650.983 14.064C652.305 13.552 653.628 13.232 654.951 13.104C656.273 12.9333 657.425 12.848 658.407 12.848C659.089 12.8053 659.665 12.9973 660.135 13.424C660.647 13.8507 660.967 14.384 661.095 15.024L662.311 22.064C662.396 22.7893 662.247 23.4293 661.863 23.984C661.521 24.5387 661.009 24.9013 660.327 25.072C659.644 25.2853 658.961 25.6267 658.279 26.096C657.596 26.5653 657.084 27.2907 656.743 28.272C656.657 28.528 656.593 28.8907 656.551 29.36C656.508 29.7867 656.487 30.2987 656.487 30.896C656.487 30.9387 656.529 31.0453 656.615 31.216C656.785 31.3013 656.892 31.344 656.935 31.344L658.663 31.28ZM694.479 40.752C694.479 41.4347 694.244 42.032 693.775 42.544C693.348 43.056 692.772 43.3547 692.047 43.44C690.767 43.568 689.402 43.6747 687.951 43.76C686.543 43.8453 685.199 43.9307 683.919 44.016C682.639 44.1013 681.487 44.1867 680.463 44.272C679.482 44.3147 678.778 44.3573 678.351 44.4C678.138 44.4 678.031 44.528 678.031 44.784C677.988 44.9973 677.946 45.296 677.903 45.68C677.903 46.0213 677.903 46.4053 677.903 46.832C677.903 47.6853 677.988 48.5173 678.159 49.328C678.372 50.1387 678.82 50.6507 679.503 50.864C679.844 50.992 680.228 50.992 680.655 50.864C681.124 50.736 681.594 50.5227 682.063 50.224C682.532 49.9253 683.002 49.6053 683.471 49.264C683.94 48.88 684.367 48.496 684.751 48.112C685.263 47.6 685.86 47.344 686.543 47.344C687.268 47.344 687.908 47.6213 688.463 48.176L692.623 52.592C693.135 53.104 693.391 53.7013 693.391 54.384C693.391 54.9813 693.156 55.5573 692.687 56.112C692.175 56.752 691.471 57.456 690.575 58.224C689.722 58.9493 688.676 59.632 687.439 60.272C686.202 60.8693 684.772 61.36 683.151 61.744C681.572 62.0853 679.802 62.1707 677.839 62C675.279 61.8293 673.06 61.2747 671.183 60.336C669.348 59.3547 667.834 58.1173 666.639 56.624C665.444 55.088 664.57 53.3387 664.015 51.376C663.46 49.3707 663.183 47.2373 663.183 44.976C663.183 43.9093 663.247 42.8 663.375 41.648C663.716 38.576 664.399 35.9307 665.423 33.712C666.447 31.4507 667.684 29.5947 669.135 28.144C670.586 26.6933 672.164 25.6267 673.871 24.944C675.62 24.2187 677.348 23.8773 679.055 23.92C681.658 23.9627 683.898 24.4533 685.775 25.392C687.695 26.288 689.295 27.504 690.575 29.04C691.855 30.576 692.815 32.368 693.455 34.416C694.095 36.4213 694.436 38.5333 694.479 40.752ZM678.671 36.4C678.671 36.528 678.714 36.6347 678.799 36.72C678.927 36.848 679.034 36.912 679.119 36.912L682.895 36.848C683.023 36.848 683.151 36.784 683.279 36.656C683.364 36.5707 683.386 36.4427 683.343 36.272C683.258 35.9733 683.151 35.5893 683.023 35.12C682.895 34.6507 682.724 34.224 682.511 33.84C682.298 33.456 682.02 33.1573 681.679 32.944C681.38 32.688 681.039 32.6453 680.655 32.816C680.271 32.9867 679.951 33.2213 679.695 33.52C679.439 33.8187 679.226 34.1387 679.055 34.48C678.927 34.8213 678.82 35.1627 678.735 35.504C678.692 35.8453 678.671 36.144 678.671 36.4ZM726.506 62L719.018 61.808C718.25 61.7227 717.631 61.4453 717.162 60.976C716.692 60.464 716.458 59.824 716.458 59.056C716.5 58.16 716.543 57.136 716.586 55.984C716.628 54.7893 716.65 53.5307 716.65 52.208C716.65 50.6293 716.607 49.0293 716.522 47.408C716.436 45.7867 716.287 44.2933 716.074 42.928C715.86 41.5627 715.562 40.4107 715.178 39.472C714.794 38.5333 714.303 37.9573 713.706 37.744C713.194 37.5733 712.746 37.7653 712.362 38.32C711.978 38.832 711.658 39.6 711.402 40.624C711.146 41.648 710.932 42.864 710.762 44.272C710.591 45.6373 710.463 47.0667 710.378 48.56C710.292 50.0533 710.228 51.5467 710.186 53.04C710.186 54.5333 710.186 55.8987 710.186 57.136V59.248C710.186 60.016 709.93 60.656 709.418 61.168C708.906 61.68 708.287 61.936 707.562 61.936H699.818C699.092 61.9787 698.474 61.744 697.962 61.232C697.45 60.72 697.194 60.1013 697.194 59.376L696.938 26.8C696.938 26.0747 697.194 25.456 697.706 24.944C698.218 24.432 698.836 24.176 699.562 24.176L705.898 24.112C706.666 24.112 707.306 24.368 707.818 24.88C708.202 25.264 708.436 25.7333 708.522 26.288C708.607 26.5013 708.714 26.6293 708.842 26.672C708.97 26.7573 709.119 26.7147 709.29 26.544C710.186 25.6907 711.508 24.9653 713.258 24.368C715.007 23.7707 716.842 23.5147 718.762 23.6C721.066 23.6853 722.943 24.3893 724.394 25.712C725.887 27.0347 727.039 28.7413 727.85 30.832C728.703 32.9227 729.279 35.2693 729.578 37.872C729.919 40.4747 730.09 43.12 730.09 45.808C730.09 48.4107 729.983 50.9067 729.77 53.296C729.599 55.6853 729.407 57.7973 729.194 59.632C729.108 60.3573 728.81 60.9333 728.298 61.36C727.786 61.7867 727.188 62 726.506 62ZM756.557 58.48C755.789 59.3333 754.594 60.0587 752.973 60.656C751.394 61.2107 749.645 61.488 747.725 61.488C746.018 61.488 744.29 61.2107 742.541 60.656C740.791 60.1013 739.191 59.1627 737.741 57.84C736.333 56.4747 735.159 54.6827 734.221 52.464C733.325 50.2027 732.855 47.408 732.812 44.08C732.77 40.9653 733.154 38.2773 733.965 36.016C734.775 33.712 735.842 31.8347 737.165 30.384C738.53 28.9333 740.087 27.8667 741.837 27.184C743.586 26.4587 745.421 26.096 747.341 26.096C750.285 26.096 753.122 26.8427 755.853 28.336C755.981 28.4213 756.13 28.4213 756.301 28.336C756.429 28.208 756.493 28.08 756.493 27.952L756.109 16.368C756.066 15.6 756.301 14.96 756.813 14.448C757.282 13.8933 757.901 13.616 758.669 13.616L767.053 13.424C767.735 13.3813 768.375 13.616 768.972 14.128C769.485 14.64 769.741 15.28 769.741 16.048L769.613 59.504C769.613 60.2293 769.357 60.848 768.845 61.36C768.333 61.872 767.714 62.128 766.989 62.128H759.245C758.519 62.128 757.901 61.8933 757.389 61.424C756.919 60.9547 756.663 60.3573 756.621 59.632L756.557 58.48ZM756.173 39.984C755.319 39.6 754.551 39.344 753.869 39.216C753.186 39.0453 752.546 38.96 751.949 38.96C750.455 38.96 749.325 39.3867 748.557 40.24C747.831 41.0507 747.469 41.968 747.469 42.992C747.469 44.016 747.831 44.9547 748.557 45.808C749.282 46.6613 750.391 47.088 751.885 47.088C752.482 47.088 753.143 47.0027 753.869 46.832C754.594 46.6613 755.383 46.3627 756.237 45.936C756.365 45.8933 756.429 45.7653 756.429 45.552V40.432C756.429 40.2187 756.343 40.0693 756.173 39.984ZM803.729 40.752C803.729 41.4347 803.494 42.032 803.025 42.544C802.598 43.056 802.022 43.3547 801.297 43.44C800.017 43.568 798.652 43.6747 797.201 43.76C795.793 43.8453 794.449 43.9307 793.169 44.016C791.889 44.1013 790.737 44.1867 789.713 44.272C788.732 44.3147 788.028 44.3573 787.601 44.4C787.388 44.4 787.281 44.528 787.281 44.784C787.238 44.9973 787.196 45.296 787.153 45.68C787.153 46.0213 787.153 46.4053 787.153 46.832C787.153 47.6853 787.238 48.5173 787.409 49.328C787.622 50.1387 788.07 50.6507 788.753 50.864C789.094 50.992 789.478 50.992 789.905 50.864C790.374 50.736 790.844 50.5227 791.313 50.224C791.782 49.9253 792.252 49.6053 792.721 49.264C793.19 48.88 793.617 48.496 794.001 48.112C794.513 47.6 795.11 47.344 795.793 47.344C796.518 47.344 797.158 47.6213 797.713 48.176L801.873 52.592C802.385 53.104 802.641 53.7013 802.641 54.384C802.641 54.9813 802.406 55.5573 801.937 56.112C801.425 56.752 800.721 57.456 799.825 58.224C798.972 58.9493 797.926 59.632 796.689 60.272C795.452 60.8693 794.022 61.36 792.401 61.744C790.822 62.0853 789.052 62.1707 787.089 62C784.529 61.8293 782.31 61.2747 780.433 60.336C778.598 59.3547 777.084 58.1173 775.889 56.624C774.694 55.088 773.82 53.3387 773.265 51.376C772.71 49.3707 772.433 47.2373 772.433 44.976C772.433 43.9093 772.497 42.8 772.625 41.648C772.966 38.576 773.649 35.9307 774.673 33.712C775.697 31.4507 776.934 29.5947 778.385 28.144C779.836 26.6933 781.414 25.6267 783.121 24.944C784.87 24.2187 786.598 23.8773 788.305 23.92C790.908 23.9627 793.148 24.4533 795.025 25.392C796.945 26.288 798.545 27.504 799.825 29.04C801.105 30.576 802.065 32.368 802.705 34.416C803.345 36.4213 803.686 38.5333 803.729 40.752ZM787.921 36.4C787.921 36.528 787.964 36.6347 788.049 36.72C788.177 36.848 788.284 36.912 788.369 36.912L792.145 36.848C792.273 36.848 792.401 36.784 792.529 36.656C792.614 36.5707 792.636 36.4427 792.593 36.272C792.508 35.9733 792.401 35.5893 792.273 35.12C792.145 34.6507 791.974 34.224 791.761 33.84C791.548 33.456 791.27 33.1573 790.929 32.944C790.63 32.688 790.289 32.6453 789.905 32.816C789.521 32.9867 789.201 33.2213 788.945 33.52C788.689 33.8187 788.476 34.1387 788.305 34.48C788.177 34.8213 788.07 35.1627 787.985 35.504C787.942 35.8453 787.921 36.144 787.921 36.4ZM806.188 26.992C806.188 26.3093 806.401 25.7333 806.828 25.264C807.297 24.752 807.873 24.4533 808.556 24.368L815.404 23.728C816.214 23.6427 816.897 23.856 817.452 24.368C818.006 25.008 818.284 25.6693 818.284 26.352V27.248C818.284 27.4613 818.39 27.6107 818.604 27.696C818.732 27.7813 818.881 27.7387 819.052 27.568C820.076 26.3307 821.142 25.456 822.252 24.944C823.404 24.432 824.556 24.176 825.708 24.176C827.542 24.176 829.334 24.7093 831.084 25.776C832.876 26.8427 834.412 28.0587 835.692 29.424C836.161 29.8933 836.396 30.448 836.396 31.088C836.438 31.6853 836.289 32.24 835.948 32.752L831.468 39.024C831.084 39.6213 830.55 39.984 829.868 40.112C829.228 40.24 828.609 40.1333 828.012 39.792C827.542 39.4933 827.009 39.2587 826.412 39.088C825.814 38.8747 825.196 38.768 824.556 38.768C824.001 38.768 823.446 38.8533 822.892 39.024C822.337 39.1947 821.782 39.5147 821.228 39.984C820.972 40.24 820.737 40.6667 820.524 41.264C820.353 41.8187 820.204 42.5013 820.076 43.312C819.99 44.1227 819.926 45.04 819.884 46.064C819.841 47.0453 819.82 48.0693 819.82 49.136C819.82 50.9707 819.862 52.784 819.948 54.576C820.033 56.368 820.118 57.8827 820.204 59.12C820.289 59.8453 820.054 60.5067 819.5 61.104C818.945 61.6587 818.305 61.936 817.58 61.936L808.812 62C808.086 62 807.468 61.744 806.956 61.232C806.444 60.72 806.188 60.1013 806.188 59.376V26.992Z" fill="white"/>
</g>
<defs>
<clipPath id="clip0_3160_2015">
<rect width="887" height="75" fill="white" transform="matrix(-1 0 0 1 887 0)"/>
</clipPath>
</defs>
</svg>
